<?xml version="1.0" encoding="UTF-8"?>
<svg id="Capa_2" data-name="Capa 2" xmlns="http://www.w3.org/2000/svg" viewBox="0 0 102.04 116.21">
  <defs>
    <style>
      .cls-1 {
        fill: #febb03;
      }

      .cls-2 {
        fill: #fefefe;
      }

      .cls-3 {
        fill: #febb04;
      }
    </style>
  </defs>
  <g id="Capa_1-2" data-name="Capa 1">
    <g>
      <path class="cls-2" d="M76.92,46.52c1.42-1.47,1.18-3.87-.44-5.09-9.19-4.17-20.68-17-31.24-12.15-6.71,3.09-13.5,8.84-20.27,12.14-1.25,1.11-1.32,2.89-.76,4.4l43.48,26.39c-5.24,3.37-10.62,7.04-16.31,9.5l-1.94-.24-15.4-9.26c1.16-.92,8.82-4.78,9.11-5.51.24-.59.17-1.17-.24-1.66-.45-.52-4.57-2.77-5.29-2.72-2.07.14-10.11,6.55-12.75,7.45-1.89,2.38-1.07,4.33,1.19,5.92,4.03,2.84,15.68,10.1,19.95,11.82,3.22,1.3,6.77,1.25,9.98-.12,6.59-2.82,13.87-9.14,20.5-12.38,1.28-.98,1.69-2.58,1.1-4.09l-43.54-26.69,14.33-8.84,2.67-.7c5.76,2.05,10.93,6.14,16.28,9.16.14.54-.34.61-.62.87-1.22,1.15-7.78,4.18-8.12,5.01-.83,2.03,3.96,3.87,5.53,4.38l12.8-7.59Z"/>
      <path class="cls-1" d="M0,33.96c1.16-4.2,3.24-8.02,7.06-10.31C19.29,17.57,31.57,7.34,43.74,1.67c5.71-2.66,10.23-1.97,15.6.88,12.27,6.51,24.15,15.18,36.37,21.92,10.48,8.38,4.41,30.47,5.98,42.47-.35,4.64-6.39,4.95-7.04.37-1.99-14.08,5.2-30.06-8.14-40.39-5.73-4.44-18.04-11.42-24.69-14.92-7.06-3.71-12.61-4.59-20.08-1.15-9.06,4.18-18.31,11.75-27.28,16.44-4.34,3.47-7.23,8.73-7.73,14.31-.75,8.4-.75,24.79,0,33.2.62,6.93,4.18,11.85,9.75,15.65,6.67,4.55,17.62,11.31,24.78,14.83,13.21,6.51,21.32-1.98,32.32-7.82,3.39-.82,5.78,3.59,3.18,5.9-11.4,5.25-20.81,17.78-34.23,10.74-12.73-6.67-25.34-15.84-37.84-23.07-1.94-1.81-4.35-5.96-4.69-8.57v-48.51Z"/>
      <path class="cls-3" d="M76.92,46.52l-12.8,7.59c-1.57-.51-6.36-2.35-5.53-4.38.34-.82,6.9-3.86,8.12-5.01.27-.26.75-.33.62-.87-5.35-3.02-10.52-7.11-16.28-9.16l-2.67.7-14.33,8.84,43.54,26.69c.59,1.51.19,3.11-1.1,4.09-6.63,3.24-13.91,9.57-20.5,12.38-3.21,1.37-6.76,1.42-9.98.12-4.27-1.72-15.91-8.97-19.95-11.82-2.26-1.59-3.08-3.53-1.19-5.92,2.64-.9,10.68-7.32,12.75-7.45.71-.05,4.84,2.2,5.29,2.72.42.49.48,1.07.24,1.66-.29.73-7.95,4.58-9.11,5.51l15.4,9.26,1.94.24c5.69-2.46,11.08-6.13,16.31-9.5l-43.48-26.39c-.56-1.51-.49-3.29.76-4.4,6.76-3.29,13.56-9.05,20.27-12.14,10.56-4.86,22.05,7.98,31.24,12.15,1.62,1.22,1.85,3.63.44,5.09Z"/>
    </g>
  </g>
</svg>